#!OML:ASF X:\für Bonn\!DataBase\2005_08_12_Daniel\c3d\Daniel.ASF
:FULLY-SPECIFIED
:DEGREES
31
root 2.42994 17.1698 6.93008 173.439 -186.153 546.236
lowerback 9.8971 1.69198 -5.56733
upperback 0.452399 1.36445 -5.1095
thorax -5.09689 0.748442 -2.41945
lowerneck -0.27294 -1.19756 -4.20515
upperneck 10.6673 -1.69195 2.66328
head 3.577 -0.898996 1.56286
rclavicle -1.44119e-015 2.8625e-014
rhumerus -36.5507 11.1746 -98.3643
rradius 56.4034
rwrist 1.00935
rhand -18.5926 15.689
rfingers 7.12502
rthumb 7.69838 -14.1508
lclavicle -1.44119e-015 2.8625e-014
lhumerus -58.6986 47.9074 45.4065
lradius 19.9544
lwrist -38.4304
lhand -8.90151 -4.42123
lfingers 7.12502
lthumb 17.0412 24.8513
rfemur -1.58992 -7.21822 8.74089
rtibia 66.9167
rfoot 6.95566 5.95947
rtoes -10.728
lfemur -16.5831 -7.04583 -31.074
ltibia 38.8616
lfoot -14.0022 0.243635
ltoes 1.24356
32
root 2.45259 17.1774 7.0717 173.291 -186.387 546.236
lowerback 10.0098 1.66875 -5.47871
upperback 0.486797 1.33397 -5.15154
thorax -5.12078 0.731101 -2.512
lowerneck -0.114535 -1.25433 -4.23673
upperneck 10.6271 -1.7765 2.70266
head 3.53747 -0.941367 1.57876
rclavicle -2.65874e-015 6.44062e-014
rhumerus -35.8121 11.4655 -97.9233
rradius 57.3932
rwrist 0.925094
rhand -19.1328 15.7543
rfingers 7.12502
rthumb 7.17695 -14.104
lclavicle -2.65874e-015 6.44062e-014
lhumerus -57.0728 47.0229 47.4766
lradius 20.2585
lwrist -37.2827
lhand -9.02396 -4.39812
lfingers 7.12502
lthumb 16.9234 24.8846
rfemur -2.93767 -7.44811 8.64736
rtibia 67.9393
rfoot 5.99514 5.97247
rtoes -9.7156
lfemur -15.862 -7.06135 -31.2305
ltibia 38.9004
lfoot -14.475 0.0703604
ltoes 1.17532
33
root 2.47323 17.1839 7.21282 173.157 -186.678 546.201
lowerback 10.0958 1.61904 -5.36608
upperback 0.518543 1.27416 -5.18127
thorax -5.13242 0.698815 -2.59974
lowerneck 0.0718382 -1.30725 -4.33218
upperneck 10.5734 -1.85947 2.79245
head 3.49017 -0.983811 1.62312
rclavicle 2.5842e-014 4.77083e-015
rhumerus -35.0491 11.7596 -97.4389
rradius 58.4397
rwrist 0.775417
rhand -19.5887 15.7084
rfingers 7.12502
rthumb 6.73683 -14.1644
lclavicle 2.5842e-014 4.77083e-015
lhumerus -55.4353 45.9968 49.6076
lradius 20.6242
lwrist -36.012
lhand -9.08392 -4.41423
lfingers 7.12502
lthumb 16.8657 24.8734
rfemur -4.21365 -7.67287 8.6487
rtibia 68.6748
rfoot 5.05753 5.89761
rtoes -9.23456
lfemur -15.1754 -7.1101 -31.3441
ltibia 38.9561
lfoot -14.9362 -0.119032
ltoes 1.13567
34
root 2.49107 17.1909 7.35454 173.019 -187.023 546.13
lowerback 10.155 1.5561 -5.2472
upperback 0.563837 1.20196 -5.19624
thorax -5.11516 0.660126 -2.67208
lowerneck 0.237806 -1.3742 -4.42705
upperneck 10.5426 -1.96195 2.89262
head 3.45611 -1.03562 1.67056
rclavicle 6.5102e-015 5.08889e-014
rhumerus -34.2074 12.0092 -96.8957
rradius 59.481
rwrist 0.615933
rhand -19.9906 15.6882
rfingers 7.12502
rthumb 6.34893 -14.1966
lclavicle 6.5102e-015 5.08889e-014
lhumerus -53.7552 44.8122 51.8392
lradius 21.0505
lwrist -34.6186
lhand -9.18171 -4.41354
lfingers 7.12502
lthumb 16.7715 24.8821
rfemur -5.39672 -7.87985 8.74591
rtibia 69.1331
rfoot 4.16987 5.76226
rtoes -9.11426
lfemur -14.4764 -7.20199 -31.4095
ltibia 39.0071
lfoot -15.4043 -0.340676
ltoes 1.06516
35
root 2.50708 17.1988 7.49664 172.914 -187.446 546.023
lowerback 10.16 1.46598 -5.10695
upperback 0.607519 1.10158 -5.19925
thorax -5.06959 0.60705 -2.73775
lowerneck 0.415137 -1.44227 -4.48747
upperneck 10.5037 -2.0649 2.96458
head 3.41614 -1.08742 1.70245
rclavicle -7.90169e-015 -1.35174e-014
rhumerus -33.2982 12.1867 -96.2844
rradius 60.5088
rwrist 0.504194
rhand -20.2442 15.6272
rfingers 7.12502
rthumb 6.10404 -14.2649
lclavicle -7.90169e-015 -1.35174e-014
lhumerus -52.1384 43.5023 54.0472
lradius 21.5594
lwrist -33.1915
lhand -9.17738 -4.42703
lfingers 7.12502
lthumb 16.7757 24.8682
rfemur -6.53994 -8.12018 8.91852
rtibia 69.3614
rfoot 3.27325 5.59636
rtoes -9.04742
lfemur -13.8056 -7.35229 -31.4352
ltibia 39.0493
lfoot -15.8564 -0.589107
ltoes 1.06009
36
root 2.52097 17.2082 7.63906 172.814 -187.917 545.896
lowerback 10.1382 1.35984 -4.97462
upperback 0.661744 0.982885 -5.18635
thorax -4.99894 0.545096 -2.77844
lowerneck 0.604891 -1.51481 -4.56918
upperneck 10.4353 -2.17413 3.04272
head 3.36477 -1.14298 1.74005
rclavicle -1.09332e-015 7.15625e-014
rhumerus -32.3347 12.3429 -95.6148
rradius 61.536
rwrist 0.402102
rhand -20.4797 15.5521
rfingers 7.12502
rthumb 5.87672 -14.3464
lclavicle -1.09332e-015 7.15625e-014
lhumerus -50.6357 42.1566 56.1412
lradius 22.1359
lwrist -31.7698
lhand -9.13824 -4.39578
lfingers 7.12502
lthumb 16.8134 24.8963
rfemur -7.61749 -8.35558 9.13455
rtibia 69.3821
rfoot 2.37617 5.3893
rtoes -8.81313
lfemur -13.1335 -7.52231 -31.4315
ltibia 39.077
lfoot -16.2905 -0.871525
ltoes 1.00901
37
root 2.5338 17.2163 7.78022 172.732 -188.398 545.769
lowerback 10.103 1.25474 -4.84254
upperback 0.700061 0.865391 -5.17292
thorax -4.93806 0.483975 -2.81895
lowerneck 0.784146 -1.59654 -4.66125
upperneck 10.4164 -2.29717 3.13594
head 3.33407 -1.20554 1.78472
rclavicle 5.86415e-015 5.56597e-015
rhumerus -31.3689 12.5351 -94.8875
rradius 62.5873
rwrist 0.248476
rhand -20.6391 15.4766
rfingers 7.12502
rthumb 5.72284 -14.4261
lclavicle 5.86415e-015 5.56597e-015
lhumerus -49.2697 40.7244 58.131
lradius 22.7921
lwrist -30.3441
lhand -9.04413 -4.43707
lfingers 7.12502
lthumb 16.904 24.8473
rfemur -8.69083 -8.57052 9.37152
rtibia 69.2492
rfoot 1.49536 5.16812
rtoes -8.52024
lfemur -12.4858 -7.71232 -31.4186
ltibia 39.1039
lfoot -16.7328 -1.14843
ltoes 1.01182
38
root 2.54253 17.2232 7.91954 172.669 -188.914 545.633
lowerback 10.0437 1.14808 -4.74072
upperback 0.745812 0.74525 -5.15051
thorax -4.8569 0.422153 -2.83203
lowerneck 0.959848 -1.68963 -4.70035
upperneck 10.3719 -2.43401 3.20279
head 3.29438 -1.27373 1.81063
rclavicle 4.96962e-016 5.56597e-015
rhumerus -30.3565 12.6925 -94.0911
rradius 63.6342
rwrist 0.0648418
rhand -20.7699 15.4738
rfingers 7.12502
rthumb 5.59656 -14.4323
lclavicle 4.96962e-016 5.56597e-015
lhumerus -47.9626 39.2068 60.0633
lradius 23.5162
lwrist -28.9495
lhand -8.95379 -4.49665
lfingers 7.12502
lthumb 16.9909 24.7802
rfemur -9.75062 -8.76615 9.65244
rtibia 68.983
rfoot 0.562424 4.9414
rtoes -8.23915
lfemur -11.8709 -7.90068 -31.3712
ltibia 39.1263
lfoot -17.1494 -1.48337
ltoes 1.03551
39
root 2.546 17.2289 8.05686 172.605 -189.457 545.495
lowerback 10.0077 1.04378 -4.6789
upperback 0.784696 0.621131 -5.12761
thorax -4.79691 0.359432 -2.82281
lowerneck 1.14395 -1.79436 -4.7019
upperneck 10.3415 -2.58642 3.25447
head 3.25779 -1.34892 1.82459
rclavicle -1.75924e-014 6.67916e-014
rhumerus -29.2863 12.7705 -93.2538
rradius 64.6202
rwrist -0.144919
rhand -20.8644 15.5073
rfingers 7.12502
rthumb 5.50528 -14.4012
lclavicle -1.75924e-014 6.67916e-014
lhumerus -46.761 37.6252 61.8701
lradius 24.2868
lwrist -27.5846
lhand -8.88866 -4.53256
lfingers 7.12502
lthumb 17.0536 24.7389
rfemur -10.7827 -8.92901 9.96207
rtibia 68.6021
rfoot -0.688064 4.80962
rtoes -9.0571
lfemur -11.2748 -8.05206 -31.2929
ltibia 39.1489
lfoot -17.5216 -1.87533
ltoes 1.02013
40
root 2.549 17.234 8.19314 172.56 -190.027 545.399
lowerback 9.97226 0.944822 -4.66615
upperback 0.811956 0.497831 -5.1016
thorax -4.75011 0.298308 -2.78345
lowerneck 1.34789 -1.90826 -4.71116
upperneck 10.2978 -2.75064 3.29616
head 3.21363 -1.43073 1.83654
rclavicle -9.64106e-015 -6.36111e-015
rhumerus -28.2058 12.8119 -92.3464
rradius 65.5903
rwrist -0.402412
rhand -20.9506 15.591
rfingers 7.12502
rthumb 5.42207 -14.3197
lclavicle -9.64106e-015 -6.36111e-015
lhumerus -45.732 36.2084 63.4554
lradius 25.0549
lwrist -26.4064
lhand -8.86933 -4.65509
lfingers 7.12502
lthumb 17.0722 24.6148
rfemur -11.7917 -9.08212 10.2183
rtibia 68.1196
rfoot -2.07547 4.75995
rtoes -9.76577
lfemur -10.6852 -8.21966 -31.249
ltibia 39.1499
lfoot -17.8994 -2.28842
ltoes 1.06624
41
root 2.55246 17.2393 8.32825 172.532 -190.616 545.303
lowerback 9.90925 0.844778 -4.63346
upperback 0.851257 0.377897 -5.08846
thorax -4.67488 0.238052 -2.76869
lowerneck 1.518 -2.03483 -4.70758
upperneck 10.2656 -2.93222 3.35531
head 3.18089 -1.52002 1.85178
rclavicle -1.98785e-016 -2.8625e-014
rhumerus -27.0591 12.7789 -91.3911
rradius 66.5083
rwrist -0.691556
rhand -21.0614 15.7569
rfingers 7.12502
rthumb 5.31502 -14.1565
lclavicle -1.98785e-016 -2.8625e-014
lhumerus -44.798 35.0446 64.7965
lradius 25.7891
lwrist -25.5456
lhand -8.86478 -4.8358
lfingers 7.12502
lthumb 17.0766 24.4337
rfemur -12.7861 -9.22058 10.4536
rtibia 67.5397
rfoot -3.42427 4.82047
rtoes -10.0432
lfemur -10.1087 -8.41626 -31.2077
ltibia 39.1276
lfoot -18.2356 -2.67752
ltoes 1.06579
